<svg xmlns="http://www.w3.org/2000/svg" viewBox="144.36 124.03 303.24 265.29"><defs><radialGradient id="gradient-1" cx="295.98" cy="256.675" r="151.62" gradientUnits="userSpaceOnUse"><stop offset="0" style="stop-color:#914694"/><stop offset="0" style="stop-color:#954694"/><stop offset="0" style="stop-color:#974694"/><stop offset=".168" style="stop-color:#944593"/><stop offset=".345" style="stop-color:#8b4292"/><stop offset=".526" style="stop-color:#7a3d8f"/><stop offset=".711" style="stop-color:#62378b"/><stop offset=".896" style="stop-color:#443286"/><stop offset="1" style="stop-color:#2d2e83"/><stop offset="1" style="stop-color:#000"/></radialGradient><style>.st0{fill:#010202}.st2{fill:url(#SVGID_00000168077688069389232310000006576656766581032631_)}.st3{fill:url(#SVGID_00000010993672839377944990000013378002174443313818_)}.st4{fill:url(#SVGID_00000150072104940218874830000004385481725600163998_)}.st5{fill:url(#SVGID_00000078045383635866317880000016522035199748541358_)}.st6{fill:url(#SVGID_00000128483474585536107370000009917034281985116301_)}.st7{fill:url(#SVGID_00000067950052736073424040000014234308588161073594_)}.st8{fill:url(#SVGID_00000121959604037710985680000009296468659099543471_)}.st9{fill:url(#SVGID_00000148638554626124640880000014143371513839050374_)}.st10{fill:url(#SVGID_00000031910986712604917830000016429854722915999677_)}.st11{fill:url(#SVGID_00000168796445053013005160000018440866885640956302_)}.st12{fill:url(#SVGID_00000008829325627473237250000013656227968527678115_)}.st13{fill:url(#SVGID_00000161596638193364004700000008437512438779249558_)}.st14{fill:url(#SVGID_00000039114794525314363510000016721566117015888277_)}.st15{fill:url(#SVGID_00000031190307349845095620000003319590764789928380_)}.st16{fill:#2d2e83}.st17{fill:url(#SVGID_00000036944336072265910060000014986085071346084737_)}.st18{fill:url(#SVGID_00000123423564063825355540000007110441275333878664_)}.st19{fill:url(#SVGID_00000130632788800007176300000005329461876495270065_)}.st20{fill:#fff}.st21{fill:url(#SVGID_00000181088549032722721560000014474742738225458108_)}.st22{fill:url(#SVGID_00000141420441216886068040000010003209818936861610_)}.st23{fill:url(#SVGID_00000036930163563647111760000004126117228312603301_)}.st24{fill:url(#SVGID_00000060709109425788703510000012653482463139588494_)}.st25{fill:url(#SVGID_00000057869546049933172520000002379580972512756668_)}.st26{fill:url(#SVGID_00000148645220201895291730000002264791016212161465_)}.st27{fill:url(#SVGID_00000126294645452248371460000015053447834629086898_)}.st28{fill:url(#SVGID_00000112607166698244009720000017534250667617692576_)}.st29{fill:url(#SVGID_00000051374027971903283620000007023045753990077575_)}.st30{fill:url(#SVGID_00000127760528378567678810000005345813429839551387_)}.st31{fill:url(#SVGID_00000147178041287422186250000004028196379105394827_)}.st32{fill:url(#SVGID_00000106139759727769328990000003314485133915767741_)}.st33{fill:url(#SVGID_00000048468801515890179550000016856238744941537434_)}.st34{fill:url(#SVGID_00000181772141845422164140000018055620798465815743_)}.st35{fill:url(#SVGID_00000144318357551085204460000012980886385439949752_)}.st36{fill:url(#SVGID_00000036215470065261244390000002281810159681608084_)}.st37{fill:url(#SVGID_00000021822593251959670150000010413051786192809601_)}.st38{fill:url(#SVGID_00000111152649682040226960000002830389911258229153_)}.st39{fill:url(#SVGID_00000010292127855106059270000013394766891519944368_)}.st40{fill:url(#SVGID_00000173848856589294938270000007440853920838256800_)}.st41{fill:url(#SVGID_00000176030791461862811110000011379773572100863624_)}.st42{fill:url(#SVGID_00000162316259264394415910000008587701364177044157_)}.st43{fill:url(#SVGID_00000176729935571713405620000003233992429616001669_)}.st44{fill:url(#SVGID_00000044889227712172252510000005878662054930256809_)}.st45{fill:url(#SVGID_00000171719222051509407580000004580441807805365679_)}.st46{fill:url(#SVGID_00000078729884828027764700000015268853908312476293_)}.st47{fill:url(#SVGID_00000138532378162587304720000000654296666775707068_)}.st48{fill:url(#SVGID_00000005981013918706783050000004444549949913666490_)}.st49{fill:url(#SVGID_00000032637687307269270470000005832450489244483999_)}.st50{fill:url(#SVGID_00000089576391850526516860000004051238026978803128_)}.st51{fill:url(#SVGID_00000170249848618623001770000004064158130312802182_)}.st52{fill:url(#SVGID_00000006692860686388239250000012110607735872634757_)}.st53{fill:url(#SVGID_00000113333085777525205800000004418786558524113586_)}.st54{fill:url(#SVGID_00000056397181545645214680000014911212526029381050_)}.st55{fill:url(#SVGID_00000114036366500820517650000012595481388082926213_)}.st56{fill:url(#SVGID_00000121244913640070576330000011880275126030136216_)}.st57{fill:url(#SVGID_00000075122931639331432550000005288256513330900409_)}.st58{fill:url(#SVGID_00000004534350799570194850000017371635307040553355_)}.st59{fill:url(#SVGID_00000101073653511164843350000011732695309426803331_)}.st60{fill:url(#SVGID_00000182486064720145875990000004593685220376037547_)}.st61{fill:url(#SVGID_00000148639221674674808350000009299212410225188270_)}.st62{fill:url(#SVGID_00000069371992078981790030000004714237442094590864_)}.st63{fill:url(#SVGID_00000009588936415120083280000017591122399541612450_)}.st64{fill:url(#SVGID_00000024001222933460068490000015193551095281696138_)}.st65{fill:url(#SVGID_00000153686628526183665200000011797912177443070357_)}.st66{fill:url(#SVGID_00000030449371894957551580000011328598580537873083_)}.st67{fill:url(#SVGID_00000005984596345017254680000012634021409057827253_)}.st68{fill:url(#SVGID_00000106831511498683790330000014850979361685605271_)}.st69{fill:url(#SVGID_00000093159426077434214210000004848215824916663703_)}.st70{fill:url(#SVGID_00000082336006846801977110000003024857397546995866_)}.st71{fill:url(#SVGID_00000108304596817141793050000007180984191212771250_)}.st72{fill:url(#SVGID_00000134931281620361958690000007708713361534105525_)}.st73{fill:url(#SVGID_00000060714150098876538010000005521537025070943407_)}.st74{fill:url(#SVGID_00000012466677506243935850000014568818210612561854_)}.st75{fill:url(#SVGID_00000168105318169640890780000007949121542168231058_)}.st76{fill:url(#SVGID_00000023959715741312215590000017650394107641193624_)}.st77{fill:url(#SVGID_00000098208526769406654100000014271955387805081509_)}.st78{fill:url(#SVGID_00000183950664249380571630000016284184822800586147_)}.st79{fill:url(#SVGID_00000010992542853523470410000008521640159433347518_)}.st80{fill:url(#SVGID_00000127741146681390472060000010265856258594875045_)}.st81{fill:url(#SVGID_00000097481750569062739080000015046489457249148334_)}.st82{fill:url(#SVGID_00000029760531037280463030000004749777456211984045_)}.st83{fill:url(#SVGID_00000061453552048372190250000003276923522466676926_)}.st84{fill:url(#SVGID_00000041991235113496770200000007453559298391008410_)}.st85{fill:url(#SVGID_00000173128860642990770970000009535936160625096583_)}.st86{fill:url(#SVGID_00000149350037579350584590000004086494616559508925_)}.st87{fill:url(#SVGID_00000064356314157412862740000009479013339033681041_)}.st88{fill:url(#SVGID_00000171679046065374007220000001542991077447644089_)}.st89{fill:url(#SVGID_00000011744259194975749810000013212745174471546002_)}.st90{fill:url(#SVGID_00000070085915568905546210000001457253605356090766_)}.st91{fill:url(#SVGID_00000126323053394809031100000012977524547100082091_)}.st92{fill:url(#SVGID_00000096043356989840075760000006653760088808420487_)}.st93{fill:url(#SVGID_00000160883061362658454710000017180296091957757087_)}.st94{fill:url(#SVGID_00000024716095342479318120000018383140763104788926_)}.st95{fill:url(#SVGID_00000109712520448890718450000008788839545253917593_)}.st96{fill:url(#SVGID_00000179648554893341945690000008867842094355213230_)}.st97{fill:url(#SVGID_00000155869238706510600790000002571701711576700607_)}.st98{fill:url(#SVGID_00000011022461802597588850000001718673435485760946_)}.st99{fill:url(#SVGID_00000022527136969878693770000017095004769907191961_)}.st100{fill:url(#SVGID_00000112621453780623097140000008342292843966122379_)}.st101{fill:url(#SVGID_00000110468005283784197680000000891381352297716097_)}.st102{fill:url(#SVGID_00000090974837535718733060000006587265583926596260_)}.st103{fill:url(#SVGID_00000042721197789896178680000009678165068131053740_)}.st104{fill:url(#SVGID_00000133491341626263710290000011501224365229964963_)}.st105{fill:url(#SVGID_00000090991252488145808120000007190221781909731461_)}.st106{fill:url(#SVGID_00000011739128130292171770000013762845515927372218_)}.st107{fill:url(#SVGID_00000076574833725212902150000013929494153111568827_)}.st108{fill:url(#SVGID_00000037690198126530403890000018374778085123715760_)}.st109{fill:url(#SVGID_00000078762867094805783300000003661196545935720847_)}.st110{fill:url(#SVGID_00000144318627414995886720000016421950757051374993_)}.st111{fill:url(#SVGID_00000024715020202403528570000004268362505141504391_)}.st112{fill:url(#SVGID_00000042738809734171505510000008331092232043132586_)}.st113{fill:url(#SVGID_00000146459605748823469920000015617308315291311285_)}.st114{fill:url(#SVGID_00000018952472571982272090000012645330571600517034_)}.st115{fill:url(#SVGID_00000058559089731004203490000003183968712308548993_)}.st116{fill:url(#SVGID_00000060737574393120950840000018135341714293588117_)}.st117{fill:url(#SVGID_00000152226644281131985280000000484449784671419295_)}.st118{fill:url(#SVGID_00000032638779806827127010000001502463249300599475_)}.st119{fill:url(#SVGID_00000168819320876374277800000011414301747745000599_)}.st120{fill:url(#SVGID_00000018933270819038705100000000830968781584435854_)}.st121{fill:url(#SVGID_00000131326672462129414120000008061045195556293022_)}.st122{fill:url(#SVGID_00000163785962559425067330000015037966449975510459_)}.st123{fill:url(#SVGID_00000119831418103542176050000008089879570481987993_)}.st124{fill:url(#SVGID_00000084531425311796388230000014415370843429823905_)}.st125{fill:url(#SVGID_00000031894734173674688550000017869737738272928648_)}</style></defs><linearGradient id="SVGID_00000059999192799306342730000008760398236409041284_" x1="363.002" x2="297.192" y1="149.659" y2="215.469" gradientUnits="userSpaceOnUse"><stop offset="0" style="stop-color:#914694"/><stop offset=".199" style="stop-color:#954694"/><stop offset=".274" style="stop-color:#974694"/><stop offset=".276" style="stop-color:#974694"/><stop offset=".385" style="stop-color:#783c8e"/><stop offset=".496" style="stop-color:#5f378a"/><stop offset=".611" style="stop-color:#4a3387"/><stop offset=".731" style="stop-color:#3b3085"/><stop offset=".857" style="stop-color:#312f84"/><stop offset="1" style="stop-color:#2d2e83"/><stop offset="1" style="stop-color:#000"/></linearGradient><linearGradient id="SVGID_00000178900972909462958910000009051235711144097448_" x1="259.298" x2="259.298" y1="260.802" y2="159.296" gradientUnits="userSpaceOnUse"><stop offset="0" style="stop-color:#914694"/><stop offset="0" style="stop-color:#954694"/><stop offset="0" style="stop-color:#974694"/><stop offset=".168" style="stop-color:#944593"/><stop offset=".345" style="stop-color:#8b4292"/><stop offset=".526" style="stop-color:#7a3d8f"/><stop offset=".711" style="stop-color:#62378b"/><stop offset=".896" style="stop-color:#443286"/><stop offset="1" style="stop-color:#2d2e83"/><stop offset="1" style="stop-color:#000"/></linearGradient><linearGradient id="SVGID_00000122706799847949774020000016074212445193468548_" x1="270.01" x2="204.749" y1="280.703" y2="215.442" gradientUnits="userSpaceOnUse"><stop offset="0" style="stop-color:#914694"/><stop offset="0" style="stop-color:#954694"/><stop offset="0" style="stop-color:#974694"/><stop offset=".168" style="stop-color:#944593"/><stop offset=".345" style="stop-color:#8b4292"/><stop offset=".526" style="stop-color:#7a3d8f"/><stop offset=".711" style="stop-color:#62378b"/><stop offset=".896" style="stop-color:#443286"/><stop offset="1" style="stop-color:#2d2e83"/><stop offset="1" style="stop-color:#000"/></linearGradient><linearGradient id="SVGID_00000179614314225185885990000016866912764372311941_" x1="240.832" x2="240.832" y1="232.876" y2="272.144" gradientUnits="userSpaceOnUse"><stop offset="0" style="stop-color:#914694"/><stop offset="0" style="stop-color:#8d4593"/><stop offset="0" style="stop-color:#824191"/><stop offset="0" style="stop-color:#6f3b8d"/><stop offset="0" style="stop-color:#543589"/><stop offset="0" style="stop-color:#332f84"/><stop offset=".99" style="stop-color:#974694"/><stop offset=".991" style="stop-color:#924493"/><stop offset=".993" style="stop-color:#834090"/><stop offset=".996" style="stop-color:#6a398c"/><stop offset=".999" style="stop-color:#463287"/><stop offset="1" style="stop-color:#2d2e83"/><stop offset="1" style="stop-color:#000"/></linearGradient><linearGradient id="SVGID_00000068673769954282363400000003012600954906899129_" x1="352.876" x2="352.876" y1="228.263" y2="205.455" gradientUnits="userSpaceOnUse"><stop offset="0" style="stop-color:#914694"/><stop offset="0" style="stop-color:#954694"/><stop offset="0" style="stop-color:#974694"/><stop offset=".168" style="stop-color:#944593"/><stop offset=".345" style="stop-color:#8b4292"/><stop offset=".526" style="stop-color:#7a3d8f"/><stop offset=".711" style="stop-color:#62378b"/><stop offset=".896" style="stop-color:#443286"/><stop offset="1" style="stop-color:#2d2e83"/><stop offset="1" style="stop-color:#000"/></linearGradient><linearGradient id="SVGID_00000161619493513365345940000005072667776190746769_" x1="352.327" x2="330.028" y1="284.082" y2="284.082" gradientUnits="userSpaceOnUse"><stop offset="0" style="stop-color:#914694"/><stop offset="0" style="stop-color:#954694"/><stop offset="0" style="stop-color:#974694"/><stop offset=".168" style="stop-color:#944593"/><stop offset=".345" style="stop-color:#8b4292"/><stop offset=".526" style="stop-color:#7a3d8f"/><stop offset=".711" style="stop-color:#62378b"/><stop offset=".896" style="stop-color:#443286"/><stop offset="1" style="stop-color:#2d2e83"/><stop offset="1" style="stop-color:#000"/></linearGradient><linearGradient id="SVGID_00000074416308095151799600000001418869165731539849_" x1="345.208" x2="375.704" y1="290.742" y2="290.742" gradientUnits="userSpaceOnUse"><stop offset="0" style="stop-color:#914694"/><stop offset="0" style="stop-color:#954694"/><stop offset="0" style="stop-color:#974694"/><stop offset=".168" style="stop-color:#944593"/><stop offset=".345" style="stop-color:#8b4292"/><stop offset=".526" style="stop-color:#7a3d8f"/><stop offset=".711" style="stop-color:#62378b"/><stop offset=".896" style="stop-color:#443286"/><stop offset="1" style="stop-color:#2d2e83"/><stop offset="1" style="stop-color:#000"/></linearGradient><linearGradient id="SVGID_00000053525760923821175390000015935072234377269122_" x1="369.823" x2="420.727" y1="291.677" y2="291.677" gradientUnits="userSpaceOnUse"><stop offset="0" style="stop-color:#914694"/><stop offset="0" style="stop-color:#954694"/><stop offset="0" style="stop-color:#974694"/><stop offset=".168" style="stop-color:#944593"/><stop offset=".345" style="stop-color:#8b4292"/><stop offset=".526" style="stop-color:#7a3d8f"/><stop offset=".711" style="stop-color:#62378b"/><stop offset=".896" style="stop-color:#443286"/><stop offset="1" style="stop-color:#2d2e83"/><stop offset="1" style="stop-color:#000"/></linearGradient><linearGradient id="SVGID_00000183217094450174259810000006944341485211823519_" x1="311.094" x2="387.343" y1="210.541" y2="210.541" gradientUnits="userSpaceOnUse"><stop offset="0" style="stop-color:#914694"/><stop offset="0" style="stop-color:#954694"/><stop offset="0" style="stop-color:#974694"/><stop offset=".168" style="stop-color:#944593"/><stop offset=".345" style="stop-color:#8b4292"/><stop offset=".526" style="stop-color:#7a3d8f"/><stop offset=".711" style="stop-color:#62378b"/><stop offset=".896" style="stop-color:#443286"/><stop offset="1" style="stop-color:#2d2e83"/><stop offset="1" style="stop-color:#000"/></linearGradient><linearGradient id="SVGID_00000180341047446239554160000007684996401925858993_" x1="259.652" x2="234.437" y1="231.411" y2="216.853" gradientUnits="userSpaceOnUse"><stop offset="0" style="stop-color:#914694"/><stop offset="0" style="stop-color:#954694"/><stop offset="0" style="stop-color:#974694"/><stop offset=".168" style="stop-color:#944593"/><stop offset=".345" style="stop-color:#8b4292"/><stop offset=".526" style="stop-color:#7a3d8f"/><stop offset=".711" style="stop-color:#62378b"/><stop offset=".896" style="stop-color:#443286"/><stop offset="1" style="stop-color:#2d2e83"/><stop offset="1" style="stop-color:#000"/></linearGradient><linearGradient id="SVGID_00000148631763851842336190000005201555635607421829_" x1="262.952" x2="205.938" y1="297.5" y2="264.583" gradientUnits="userSpaceOnUse"><stop offset="0" style="stop-color:#914694"/><stop offset="0" style="stop-color:#954694"/><stop offset="0" style="stop-color:#974694"/><stop offset=".168" style="stop-color:#944593"/><stop offset=".345" style="stop-color:#8b4292"/><stop offset=".526" style="stop-color:#7a3d8f"/><stop offset=".711" style="stop-color:#62378b"/><stop offset=".896" style="stop-color:#443286"/><stop offset="1" style="stop-color:#2d2e83"/><stop offset="1" style="stop-color:#000"/></linearGradient><linearGradient id="SVGID_00000048463254383302484740000001044267687575528597_" x1="173.415" x2="224.957" y1="313.135" y2="313.135" gradientUnits="userSpaceOnUse"><stop offset="0" style="stop-color:#914694"/><stop offset="0" style="stop-color:#954694"/><stop offset="0" style="stop-color:#974694"/><stop offset=".168" style="stop-color:#944593"/><stop offset=".345" style="stop-color:#8b4292"/><stop offset=".526" style="stop-color:#7a3d8f"/><stop offset=".711" style="stop-color:#62378b"/><stop offset=".896" style="stop-color:#443286"/><stop offset="1" style="stop-color:#2d2e83"/><stop offset="1" style="stop-color:#000"/></linearGradient><linearGradient id="SVGID_00000016776032776808079550000016798786234741143450_" x1="369.827" x2="391.206" y1="335.509" y2="335.509" gradientUnits="userSpaceOnUse"><stop offset="0" style="stop-color:#914694"/><stop offset="0" style="stop-color:#954694"/><stop offset="0" style="stop-color:#974694"/><stop offset=".168" style="stop-color:#944593"/><stop offset=".345" style="stop-color:#8b4292"/><stop offset=".526" style="stop-color:#7a3d8f"/><stop offset=".711" style="stop-color:#62378b"/><stop offset=".896" style="stop-color:#443286"/><stop offset="1" style="stop-color:#2d2e83"/><stop offset="1" style="stop-color:#000"/></linearGradient><linearGradient id="SVGID_00000099636731956821262480000005079463703359264169_" x1="440.814" x2="388.981" y1="313.691" y2="313.691" gradientUnits="userSpaceOnUse"><stop offset="0" style="stop-color:#914694"/><stop offset="0" style="stop-color:#954694"/><stop offset="0" style="stop-color:#974694"/><stop offset=".168" style="stop-color:#944593"/><stop offset=".345" style="stop-color:#8b4292"/><stop offset=".526" style="stop-color:#7a3d8f"/><stop offset=".711" style="stop-color:#62378b"/><stop offset=".896" style="stop-color:#443286"/><stop offset="1" style="stop-color:#2d2e83"/><stop offset="1" style="stop-color:#000"/></linearGradient><path d="M447.27 257.11c-.44.77-1.25 1.23-2.14 1.23H320.42v66.27h35.27c1.36 0 2.46 1.1 2.46 2.46v21.82c0 1.36-1.1 2.46-2.46 2.46H238.24c-1.36 0-2.46-1.1-2.46-2.46v-21.17c0-1.36 1.1-2.46 2.46-2.46h29.36v-88.24c0-.79.38-1.53 1.01-1.99l6.86-5v-21.38c0-.72.32-1.4.86-1.87l6.04-5.17v-23.53c0-1.36 1.1-2.46 2.46-2.46s2.46 1.1 2.46 2.46v9.89l6.78-5.65a2.49 2.49 0 0 1 1.84-.56c.66.07 1.26.4 1.67.93l7.22 9.19c.34.43.53.97.53 1.53v8.55l6.31 4.35c.67.46 1.06 1.22 1.06 2.03v21.29a5.55 5.55 0 0 1-2.45 10.53c-3.07 0-5.56-2.48-5.56-5.55a5.534 5.534 0 0 1 3.09-4.97v-20.01l-6.31-4.35a2.428 2.428 0 0 1-1.06-2.03v-8.99l-5.13-6.52-7.99 6.66v8.36c0 .72-.32 1.41-.86 1.87l-6.04 5.17v21.5c0 .79-.37 1.53-1.01 1.99l-6.86 5v89.46c0 1.37-1.09 2.46-2.46 2.46H240.7v16.24h112.52v-16.89h-35.27c-1.36 0-2.46-1.1-2.46-2.46v-71.19c0-1.36 1.1-2.46 2.46-2.46h122.91l-72.17-124.5h-145.2l-73.82 130.6 73.36 124.85h145.92l8.85-14.77H239.51c-.2.4-.44.77-.73 1.11-1 1.21-2.53 1.98-4.24 1.98-3.07 0-5.55-2.49-5.55-5.56a5.55 5.55 0 0 1 10.53-2.45h142.63c.89 0 1.7.48 2.14 1.25.44.78.43 1.72-.03 2.48l-11.8 19.68a2.45 2.45 0 0 1-2.12 1.2H221.62c-.87 0-1.67-.46-2.12-1.22l-74.8-127.28c-.45-.76-.45-1.69-.02-2.46l75.23-133.08c.43-.77 1.25-1.25 2.15-1.25h148.06c.88 0 1.69.47 2.14 1.23l75.01 129.42c.44.73.44 1.67 0 2.43z" style="paint-order:fill;fill-rule:nonzero;fill:url(#gradient-1)"/><path d="M414.32 235.34a5.55 5.55 0 0 1-11.1 0c0-1.11.32-2.15.89-3.01l-49.82-84.05H231.02c-1.36 0-2.46-1.1-2.46-2.46s1.1-2.46 2.46-2.46h124.66c.87 0 1.67.46 2.12 1.21l50.54 85.23c.15-.01.29-.02.43-.02 3.07 0 5.55 2.49 5.55 5.56z" style="fill:url(#SVGID_00000059999192799306342730000008760398236409041284_)"/><path d="M350.4 164.85c0 3.07-2.49 5.55-5.56 5.55-2.18 0-4.07-1.26-4.97-3.09H227.51l-54.73 92.29c-.45.77-1.27 1.2-2.12 1.2-.42 0-.86-.11-1.25-.34a2.465 2.465 0 0 1-.87-3.37l55.44-93.5c.45-.75 1.25-1.2 2.13-1.2h113.75a5.56 5.56 0 0 1 4.97-3.09c3.08 0 5.57 2.48 5.57 5.55z" style="fill:url(#SVGID_00000178900972909462958910000009051235711144097448_)"/><path d="m258.45 186.56-.44 18.87c-.03 1.36-1.17 2.45-2.52 2.4a2.45 2.45 0 0 1-2.4-2.51l.38-16.36h-14.88l-42.16 72.59 30.82 47.65a5.55 5.55 0 0 1 6.48 5.47c0 3.07-2.48 5.56-5.55 5.56s-5.55-2.49-5.55-5.56c0-.93.23-1.8.63-2.57l-31.77-49.15c-.5-.78-.53-1.77-.07-2.57l43.63-75.13c.44-.76 1.25-1.22 2.13-1.22h18.81c.67 0 1.3.27 1.76.74.46.49.72 1.13.7 1.79z" style="fill:url(#SVGID_00000122706799847949774020000016074212445193468548_)"/><path d="M257.11 266.58a5.56 5.56 0 0 1-5.56 5.56c-3.06 0-5.55-2.49-5.55-5.56 0-.89.21-1.71.58-2.45l-21.49-27.27c-.85-1.06-.66-2.61.4-3.46 1.06-.84 2.62-.66 3.46.41l21.54 27.31c.34-.06.7-.1 1.06-.1 3.07.01 5.56 2.5 5.56 5.56z" style="fill:url(#SVGID_00000179614314225185885990000016866912764372311941_)"/><path d="M362.04 222.71c0 3.07-2.49 5.55-5.56 5.55a5.55 5.55 0 0 1-4.98-8l-7.37-10.97a2.463 2.463 0 1 1 4.09-2.75l7.2 10.7c.34-.06.71-.1 1.07-.1 3.06.01 5.55 2.5 5.55 5.57z" style="fill:url(#SVGID_00000068673769954282363400000003012600954906899129_)"/><path d="M352.33 274.31c0 3.07-2.48 5.56-5.55 5.56-.16 0-.32-.01-.48-.03l-11.73 18.42c-.46.74-1.26 1.14-2.08 1.14-.45 0-.91-.13-1.32-.38a2.47 2.47 0 0 1-.76-3.4l11.68-18.34c-.55-.86-.87-1.88-.87-2.97a5.55 5.55 0 0 1 5.55-5.55c3.08 0 5.56 2.49 5.56 5.55z" style="fill:url(#SVGID_00000161619493513365345940000005072667776190746769_)"/><path d="m375.31 273.49-19.65 30.11a5.552 5.552 0 0 1-4.89 8.2c-3.06 0-5.55-2.48-5.55-5.55s2.49-5.56 5.55-5.56c.3 0 .58.02.87.07l19.55-29.96a2.466 2.466 0 0 1 3.41-.71c1.13.73 1.44 2.26.71 3.4z" style="fill:url(#SVGID_00000074416308095151799600000001418869165731539849_)"/><path d="M420.35 274.61 402.1 303.9c.58.88.92 1.93.92 3.06 0 3.07-2.48 5.56-5.55 5.56s-5.55-2.49-5.55-5.56a5.55 5.55 0 0 1 5.55-5.55c.13 0 .25 0 .37.02l15.99-25.67h-19.27l-20.2 31.79a2.46 2.46 0 0 1-3.4.76 2.468 2.468 0 0 1-.76-3.4l20.92-32.93c.45-.71 1.24-1.14 2.08-1.14h25.06c.9 0 1.72.49 2.16 1.27.43.77.41 1.73-.07 2.5z" style="fill:url(#SVGID_00000053525760923821175390000015935072234377269122_)"/><path d="M387 238.94a2.45 2.45 0 0 1-2.12 1.2h-55.11c-1.36 0-2.46-1.1-2.46-2.46V209.8c0-1.36 1.1-2.46 2.46-2.46s2.46 1.1 2.46 2.46v25.42h48.51l-25.2-46.25h-33.92a5.537 5.537 0 0 1-4.97 3.09c-3.07 0-5.55-2.48-5.55-5.55s2.48-5.55 5.55-5.55c2.19 0 4.08 1.26 4.97 3.09h35.37c.91 0 1.73.49 2.17 1.28l27.88 51.18c.41.75.41 1.68-.04 2.43z" style="fill:url(#SVGID_00000183217094450174259810000006944341485211823519_)"/><path d="M256.04 237.29c-.44.34-.97.51-1.5.51-.74 0-1.47-.33-1.95-.96l-10.92-14.22a5.552 5.552 0 0 1-6.54-5.47 5.55 5.55 0 0 1 11.1 0c0 .91-.22 1.76-.61 2.52l10.87 14.17c.83 1.08.63 2.62-.45 3.45z" style="fill:url(#SVGID_00000180341047446239554160000007684996401925858993_)"/><path d="M254.47 311.69c-.42.3-.91.43-1.39.43-.79 0-1.56-.38-2.04-1.08l-33.2-48.92c-.3.05-.6.08-.91.08-3.07 0-5.56-2.48-5.56-5.55s2.49-5.55 5.56-5.55a5.55 5.55 0 0 1 4.9 8.16l33.28 49.02c.78 1.12.49 2.66-.64 3.41z" style="fill:url(#SVGID_00000148631763851842336190000005201555635607421829_)"/><path d="M223.77 352.96a2.466 2.466 0 0 1-3.39-.83l-41.75-68.8h-.03c-2.86 0-5.19-2.32-5.19-5.19 0-2.87 2.32-5.19 5.19-5.19s5.19 2.32 5.19 5.19c0 1.04-.31 2.01-.84 2.83l41.65 68.61c.7 1.16.34 2.68-.83 3.38z" style="fill:url(#SVGID_00000048463254383302484740000001044267687575528597_)"/><path d="M391.21 326.39a5.544 5.544 0 0 1-6.1 5.52l-10.73 17.11c-.46.74-1.27 1.15-2.09 1.15-.44 0-.9-.12-1.3-.37a2.465 2.465 0 0 1-.78-3.4l10.72-17.11c-.53-.85-.83-1.84-.83-2.9 0-3.07 2.48-5.55 5.55-5.55s5.56 2.48 5.56 5.55z" style="fill:url(#SVGID_00000016776032776808079550000016798786234741143450_)"/><path d="m440.46 276.66-41.4 69.01c.65.91 1.02 2.02 1.02 3.22a5.55 5.55 0 0 1-11.1 0c0-3.07 2.48-5.56 5.55-5.56.06 0 .13 0 .19.01l41.52-69.2c.7-1.16 2.22-1.55 3.38-.84 1.17.69 1.54 2.2.84 3.36z" style="fill:url(#SVGID_00000099636731956821262480000005079463703359264169_)"/></svg>